<svg width="14" height="12" viewBox="0 0 14 12" fill="none" xmlns="http://www.w3.org/2000/svg">
<path d="M0.904191 4.95385C0.938132 4.91991 0.985154 4.89869 1.03713 4.89869L9.78393 4.89834L6.01403 1.12845C5.9603 1.07471 5.94421 0.993922 5.9732 0.923566C6.00237 0.853387 6.07078 0.807602 6.14679 0.807602L8.73018 0.807956C8.78003 0.807956 8.82776 0.827755 8.86311 0.86311L13.8671 5.86707C13.9404 5.94043 13.9404 6.05957 13.8671 6.13293L8.86293 11.1371C8.82775 11.1722 8.77985 11.1922 8.73 11.1922L6.14679 11.1924C6.07078 11.1924 6.00237 11.1466 5.9732 11.0764C5.94403 11.0063 5.96029 10.9253 6.01403 10.8716L9.78393 7.10166L1.03695 7.10113C0.933005 7.10113 0.84886 7.01698 0.849038 6.91322L0.849038 5.08678C0.849038 5.03481 0.870074 4.98797 0.904191 4.95385Z" fill="#0B1215"/>
</svg>
